<svg width="46" height="46" viewBox="0 0 46 46" fill="none" xmlns="http://www.w3.org/2000/svg">
<rect x="1.5" y="1.5" width="43" height="43" rx="21.5" fill="#0055FF"/>
<rect x="1.5" y="1.5" width="43" height="43" rx="21.5" stroke="white" stroke-width="3"/>
<rect width="24" height="24" transform="translate(11 11)" fill="white" style="mix-blend-mode:multiply"/>
<mask id="mask0_2158_69" style="mask-type:alpha" maskUnits="userSpaceOnUse" x="13" y="14" width="20" height="19">
<path d="M27.7 14C25.8 14 24.2 14.9 23.3 16.4C23.2 16.6 23 16.6 22.9 16.4C21.8 14.9 20.2 14 18.3 14C15.4 14 13 16.4 13 19.3C13 24 20.2 30 22.4 31.8C22.8 32.1 23.3 32.1 23.6 31.8C25.8 30 33 24 33 19.3C33 16.4 30.6 14 27.7 14Z" fill="#121619"/>
</mask>
<g mask="url(#mask0_2158_69)">
<rect x="11" y="11" width="24" height="24" fill="white"/>
</g>
</svg>
